name Walk3.mot
datacolumns 19
datarows 10
range 1.99000000 2.03500000
endheader

                time	   L_ground_force_vx	   L_ground_force_vy	   L_ground_force_vz	   L_ground_force_px	   L_ground_force_py	   L_ground_force_pz	   R_ground_force_vx	   R_ground_force_vy	   R_ground_force_vz	   R_ground_force_px	   R_ground_force_py	   R_ground_force_pz	   L_ground_torque_x	   L_ground_torque_y	   L_ground_torque_z	   R_ground_torque_x	   R_ground_torque_y	   R_ground_torque_z	
          1.99000000	          6.03358013	         65.40351395	         -6.33165849	         -0.06604064	          0.00000000	         -0.01248075	          0.00000000	          0.00000000	          0.00000000	          0.00000000	          0.00000000	          0.00000000	          0.00000000	          0.02824978	          0.00000000	          0.00000000	         -0.00000000	          0.00000000	
          1.99500000	          5.07064244	         96.69951066	         -8.09709147	         -0.14438847	          0.00000000	         -0.02743708	          0.00000000	          0.00000000	          0.00000000	          0.00000000	          0.00000000	          0.00000000	          0.00000000	          0.01752869	          0.00000000	          0.00000000	         -0.00000000	          0.00000000	
          2.00000000	          3.73572368	        131.14116018	         -9.58524446	         -0.21309639	          0.00000000	         -0.04074838	          0.00000000	          0.00000000	          0.00000000	          0.00000000	          0.00000000	          0.00000000	          0.00000000	         -0.00234504	          0.00000000	          0.00000000	         -0.00000000	          0.00000000	
          2.00500000	          1.69552607	        167.58479069	        -10.57242999	         -0.26989071	          0.00000000	         -0.05201821	         -0.00000000	          0.00000000	          0.00000000	          0.00000000	          0.00000000	          0.00000000	          0.00000000	         -0.03344815	          0.00000000	          0.00000000	         -0.00000000	          0.00000000	
          2.01000000	         -1.48514864	        205.11573599	        -10.83151378	         -0.31420470	          0.00000000	         -0.06117540	         -0.00000000	          0.00000000	          0.00000000	          0.00000000	          0.00000000	          0.00000000	          0.00000000	         -0.07693211	          0.00000000	          0.00000000	         -0.00000000	          0.00000000	
          2.01500000	         -6.20341703	        243.17984490	        -10.15760930	         -0.34662127	          0.00000000	         -0.06835917	         -0.00000000	          0.00000000	          0.00000000	          0.00000000	          0.00000000	          0.00000000	          0.00000000	         -0.13322759	          0.00000000	          0.00000000	         -0.00000000	          0.00000000	
          2.02000000	        -12.70254457	        281.42509803	         -8.40398395	         -0.36843055	          0.00000000	         -0.07382227	         -0.00000000	          0.00000000	          0.00000000	          0.00000000	          0.00000000	          0.00000000	          0.00000000	         -0.20202109	          0.00000000	          0.00000000	         -0.00000000	          0.00000000	
          2.02500000	        -20.99965675	        319.55393025	         -5.51598138	         -0.38129093	          0.00000000	         -0.07786371	         -0.00000000	          0.00000000	          0.00000000	          0.00000000	          0.00000000	          0.00000000	          0.00000000	         -0.28170047	          0.00000000	          0.00000000	         -0.00000000	          0.00000000	
          2.03000000	        -30.86258077	        357.30762282	         -1.55144506	         -0.38698753	          0.00000000	         -0.08078298	         -0.00000000	          0.00000000	          0.00000000	          0.00000000	          0.00000000	          0.00000000	          0.00000000	         -0.36801408	          0.00000000	          0.00000000	          0.00000000	          0.00000000	
          2.03500000	        -41.87023172	        394.44258767	          3.31499829	         -0.38726938	          0.00000000	         -0.08284759	         -0.00000000	          0.00000000	          0.00000000	          0.00000000	          0.00000000	          0.00000000	          0.00000000	         -0.45215903	          0.00000000	          0.00000000	          0.00000000	          0.00000000	
